<svg xmlns="http://www.w3.org/2000/svg" width="16" height="16" viewBox="0 0 16 16" fill="none">
  <path d="M16 8C16 3.5817 12.4104 1.56906e-07 7.9824 3.50461e-07C3.78975 5.33727e-07 0.35403 3.21245 3.19283e-07 7.30435L8.65859 7.30435C7.49632 6.28362 6.75786 4.79311 6.75786 3.13044L8.15223 3.13044C8.15223 5.43207 10.0286 7.30435 12.3353 7.30435L12.3353 8.69565C10.0286 8.69565 8.15223 10.5679 8.15223 12.8696L6.75786 12.8696C6.75786 11.2093 7.49046 9.71604 8.64995 8.69565L3.80099e-07 8.69565C0.35403 12.7875 3.78975 16 7.9824 16C12.4104 16 16 12.4183 16 8Z" fill="url(#paint0_linear_2249_2431)"/>
  <defs>
    <linearGradient id="paint0_linear_2249_2431" x1="19.2" y1="-3.2" x2="4.1328e-07" y2="16" gradientUnits="userSpaceOnUse">
      <stop offset="0.1549" stop-color="#FFCE00"/>
      <stop offset="0.851153" stop-color="#FF8110"/>
    </linearGradient>
  </defs>
</svg>